HIERARCHY
ROOT hip
{
	OFFSET 0.000000 0.000000 0.000000 
	CHANNELS 6 Xposition Yposition Zposition Xrotation Zrotation Yrotation
	JOINT abdomen
	{
		OFFSET 0.000000 3.402643 0.000000 
		CHANNELS 3 Xrotation Zrotation Yrotation
		JOINT chest
		{
			OFFSET 0.000000 8.438565 -0.680529 
			CHANNELS 3 Xrotation Zrotation Yrotation
			JOINT neck
			{
				OFFSET 0.000000 10.207942 -0.272212 
				CHANNELS 3 Xrotation Zrotation Yrotation
				JOINT head
				{
					OFFSET 0.000000 3.130431 0.000000 
					CHANNELS 3 Xrotation Zrotation Yrotation
					End Site
					{
						OFFSET 0.000000 3.130435 0.000000 
					}
				}
			}
			JOINT lCollar
			{
				OFFSET 3.470700 6.669187 -0.816635 
				CHANNELS 3 Yrotation Zrotation Xrotation
				JOINT lShldr
				{
					OFFSET 3.198488 0.000000 0.000000 
					CHANNELS 3 Zrotation Yrotation Xrotation
					JOINT lForeArm
					{
						OFFSET 10.139888 0.000000 0.000000 
						CHANNELS 3 Yrotation Zrotation Xrotation
						JOINT lHand
						{
							OFFSET 8.370511 0.000000 0.000000 
							CHANNELS 3 Zrotation Yrotation Xrotation
							End Site
							{
								OFFSET 4.083176 0.000000 0.000000 
							}
						}
					}
				}
			}
			JOINT rCollar
			{
				OFFSET -3.470700 6.669187 -0.816635 
				CHANNELS 3 Yrotation Zrotation Xrotation
				JOINT rShldr
				{
					OFFSET -3.198488 0.000000 0.000000 
					CHANNELS 3 Zrotation Yrotation Xrotation
					JOINT rForeArm
					{
						OFFSET -10.139888 0.000000 0.000000 
						CHANNELS 3 Yrotation Zrotation Xrotation
						JOINT rHand
						{
							OFFSET -8.370511 0.000000 0.000000 
							CHANNELS 3 Zrotation Yrotation Xrotation
							End Site
							{
								OFFSET -4.083176 0.000000 0.000000 
							}
						}
					}
				}
			}
		}
	}
	JOINT lThigh
	{
		OFFSET 5.308129 -1.633274 1.361059 
		CHANNELS 3 Xrotation Zrotation Yrotation
		JOINT lShin
		{
			OFFSET -2.041588 -20.007561 0.000000 
			CHANNELS 3 Xrotation Zrotation Yrotation
			JOINT lFoot
			{
				OFFSET 0.000000 -19.190928 -1.224953 
				CHANNELS 3 Xrotation Yrotation Zrotation
				End Site
				{
					OFFSET 0.000000 -2.449906 4.627600 
				}
			}
		}
	}
	JOINT rThigh
	{
		OFFSET -5.308129 -1.633274 1.361059 
		CHANNELS 3 Xrotation Zrotation Yrotation
		JOINT rShin
		{
			OFFSET 2.041588 -20.007561 0.000000 
			CHANNELS 3 Xrotation Zrotation Yrotation
			JOINT rFoot
			{
				OFFSET 0.000000 -19.190928 -1.224953 
				CHANNELS 3 Xrotation Yrotation Zrotation
				End Site
				{
					OFFSET 0.000000 -2.449906 4.627600 
				}
			}
		}
	}
}
MOTION
Frames: 20
Frame Time: 0.016667
0.834085 53.833344 -2.740418 -7.864114 2.232019 6.421016 27.329336 -0.442715 -0.235029 0.278570 1.728347 -1.230694 -4.736226 0.957949 -0.065763 13.430062 -5.320810 1.342992 -14.801559 -11.139832 -0.579305 -69.157082 9.862249 -20.628334 -24.834980 -5.000000 26.347712 -17.371225 10.266218 16.903322 1.027487 14.055671 -0.740674 68.393707 -2.872627 -9.990144 17.730085 5.000000 26.307989 18.977192 -14.514449 -9.089041 14.574988 12.252381 3.072757 0.602787 -3.573970 -0.113913 -5.319430 6.902297 -9.536513 17.448227 -9.862123 -11.514125 0.321344 2.371219 0.015085 -5.557348 -11.686192 8.777184 
0.858635 53.833344 -2.737395 -7.785661 2.241809 6.401500 27.280064 -0.463633 -0.265665 0.207851 1.747846 -1.308785 -4.736323 1.035195 -0.077437 13.391507 -5.291280 1.450860 -14.801259 -11.110575 -0.577797 -69.369720 9.874492 -20.704117 -25.234673 -5.000000 25.627371 -17.671328 10.159929 15.985218 1.057436 14.104429 -0.743199 68.536339 -2.865784 -9.937774 17.671099 5.000000 24.679312 17.832273 -15.196947 -8.751326 14.504262 12.182919 3.066820 0.593210 -3.526182 -0.123618 -5.350244 6.917444 -9.486678 17.385010 -9.889979 -11.559593 0.292351 2.394909 0.032534 -5.519376 -11.710150 8.759083 
0.882327 53.833344 -2.734328 -7.708681 2.241937 6.372227 27.221251 -0.473203 -0.322358 0.157521 1.767356 -1.357592 -4.755753 1.094590 -0.076538 13.392228 -5.291044 1.549001 -14.812572 -11.078824 -0.585554 -69.564934 9.905802 -20.782555 -25.556620 -5.000000 25.110203 -17.870329 10.065821 15.381673 1.089450 14.123747 -0.753678 68.606064 -2.839100 -9.799794 17.628492 5.000000 23.495892 16.941109 -15.741650 -8.162416 14.455159 12.134032 3.075353 0.564254 -3.531082 -0.131303 -5.349652 6.916150 -9.476518 17.336529 -9.948484 -11.551779 0.242929 2.400442 0.029558 -5.474589 -11.704345 8.797873 
0.905448 53.833344 -2.731229 -7.652001 2.242150 6.323436 27.152805 -0.482863 -0.378047 0.117253 1.767336 -1.416167 -4.775352 1.142868 -0.083835 13.412825 -5.310341 1.637415 -14.822132 -11.059317 -0.584548 -69.764053 9.937685 -20.892056 -25.838894 -5.000000 24.712292 -18.010979 9.977642 14.965239 1.128513 14.123740 -0.753678 68.623856 -2.790653 -9.608421 17.579618 5.000000 22.607403 16.211901 -16.193398 -7.402313 14.450865 12.078625 3.113025 0.524985 -3.517671 -0.148320 -5.375364 6.927824 -9.459573 17.276396 -10.006288 -11.533771 0.224189 2.432121 0.057206 -5.446497 -11.729465 8.767925 
0.928313 53.833344 -2.727542 -7.585936 2.242403 6.264888 27.084503 -0.477389 -0.417032 0.077423 1.777091 -1.445756 -4.794743 1.182952 -0.080018 13.424506 -5.329652 1.716107 -14.849483 -11.052063 -0.574779 -69.964333 9.972297 -21.012793 -26.095818 -5.000000 24.379480 -18.116562 9.907620 14.659850 1.167443 14.113982 -0.753173 68.620277 -2.731402 -9.379269 17.535355 5.000000 21.874891 15.559013 -16.598696 -6.580993 14.410797 12.019525 3.149998 0.505960 -3.510738 -0.156839 -5.360159 6.970358 -9.420753 17.197950 -10.055098 -11.493124 0.204482 2.424074 0.056177 -5.425915 -11.781534 8.757172 
0.950153 53.833344 -2.721505 -7.513445 2.233192 6.147409 27.035711 -0.485568 -0.420408 0.028326 1.757552 -1.484810 -4.775225 1.192608 -0.081477 13.418737 -5.339247 1.774446 -14.908175 -11.061814 -0.575283 -70.145760 10.049184 -21.189247 -26.281961 -5.000000 24.295576 -18.107450 9.882032 14.742292 1.196343 14.084721 -0.751659 68.515083 -2.646625 -9.067426 17.456873 5.000000 21.801533 15.254507 -16.865561 -5.651174 14.442535 11.982923 3.213233 0.438356 -3.539337 -0.132220 -5.377562 7.020845 -9.408813 17.123030 -10.115002 -11.394654 0.204484 2.433728 0.046254 -5.409361 -11.738228 8.788662 
0.971990 53.833344 -2.715469 -7.450305 2.223927 6.040068 26.977243 -0.488279 -0.410640 -0.020930 1.747778 -1.514098 -4.755694 1.192608 -0.081477 13.422713 -5.348836 1.833693 -14.966870 -11.071568 -0.575785 -70.336296 10.121573 -21.369791 -26.456795 -5.000000 24.222235 -18.094444 9.868336 14.832200 1.235010 14.055460 -0.750145 68.410187 -2.566309 -8.743668 17.378273 5.000000 21.728041 14.943895 -17.117643 -4.714696 14.423513 11.914176 3.258754 0.399940 -3.533695 -0.100331 -5.365983 7.081865 -9.393265 17.032167 -10.162861 -11.303868 0.204467 2.433437 0.026726 -5.389325 -11.705870 8.804168 
0.990450 53.833344 -2.708106 -7.409801 2.195341 5.903071 26.928522 -0.466876 -0.411412 -0.049884 1.728249 -1.533629 -4.755653 1.163641 -0.077099 13.445229 -5.387700 1.892941 -15.016000 -11.100823 -0.577294 -70.482094 10.186569 -21.561340 -26.532663 -5.000000 24.369034 -18.062210 9.851333 15.327385 1.282917 13.987188 -0.746611 68.246597 -2.471762 -8.415384 17.354546 5.000000 22.109648 14.943826 -17.277370 -3.737500 14.469105 11.892232 3.366307 0.349846 -3.519700 -0.116696 -5.380817 7.128435 -9.351920 16.964500 -10.192194 -11.179006 0.194773 2.414351 0.006929 -5.402305 -11.719961 8.795754 
1.008069 53.833344 -2.700414 -7.379908 2.157011 5.766076 26.879641 -0.431892 -0.395976 -0.069072 1.708721 -1.543395 -4.755793 1.123557 -0.080916 13.476165 -5.436283 1.961915 -15.045701 -11.139832 -0.579305 -70.626511 10.247510 -21.744204 -26.587198 -5.000000 24.559910 -18.021416 9.841239 15.935028 1.330961 13.928669 -0.743581 68.053802 -2.381382 -8.064712 17.348211 5.000000 22.601175 15.014750 -17.427223 -2.749169 14.505390 11.881363 3.475607 0.290515 -3.534954 -0.112427 -5.377606 7.133896 -9.349231 16.908056 -10.222122 -11.054318 0.185082 2.405022 -0.013025 -5.391222 -11.658251 8.823189 
1.025206 53.833916 -2.690973 -7.358043 2.138123 5.619327 26.840660 -0.404688 -0.384094 -0.098140 1.679423 -1.553157 -4.745962 1.075279 -0.073620 13.500374 -5.475194 2.000799 -15.094934 -11.178841 -0.581316 -70.744568 10.321839 -21.931360 -26.589849 -5.000000 24.849144 -18.013569 9.829267 16.707684 1.378748 13.850646 -0.739540 67.853996 -2.299355 -7.763593 17.371357 5.000000 23.227287 15.212582 -17.529177 -1.804835 14.561926 11.830554 3.587539 0.252484 -3.538065 -0.119458 -5.409616 7.207675 -9.295257 16.862358 -10.253430 -10.930052 0.175412 2.396103 -0.003686 -5.389308 -11.662538 8.833820 
1.041617 53.835350 -2.678914 -7.344550 2.128898 5.482340 26.801607 -0.397283 -0.349121 -0.117715 1.650121 -1.533617 -4.716618 1.036655 -0.067783 13.530525 -5.504538 1.981355 -15.163802 -11.227601 -0.583829 -70.854828 10.393196 -22.129475 -26.534536 -5.000000 25.285271 -18.043013 9.827429 17.723797 1.426670 13.782375 -0.736003 67.619698 -2.249991 -7.533800 17.440510 5.000000 24.030666 15.596986 -17.573729 -0.939860 14.632463 11.793469 3.701795 0.203689 -3.570610 -0.115565 -5.421041 7.202872 -9.274534 16.830164 -10.300244 -10.820375 0.146795 2.388853 0.034192 -5.336364 -11.691437 8.877744 
1.058029 53.836784 -2.666853 -7.331373 2.119690 5.335957 26.762623 -0.385895 -0.323076 -0.136814 1.611060 -1.514083 -4.677667 0.986916 -0.070141 13.549985 -5.533850 1.971632 -15.232675 -11.276362 -0.586342 -70.965103 10.463925 -22.327900 -26.467844 -5.000000 25.726273 -18.077751 9.829598 18.738596 1.462323 13.704604 -0.720161 67.395233 -2.197589 -7.304903 17.494493 5.000000 24.833921 15.977373 -17.632809 -0.080840 14.700239 11.743722 3.813932 0.174562 -3.581800 -0.103592 -5.453510 7.242895 -9.256543 16.790756 -10.339601 -10.698513 0.126971 2.370598 0.043111 -5.286990 -11.676929 8.919655 
1.070222 53.836784 -2.653138 -7.327914 2.110464 5.189212 26.752987 -0.362336 -0.302562 -0.174533 1.581783 -1.494293 -4.658049 0.909670 -0.058467 13.593307 -5.582517 2.011454 -15.243365 -11.364130 -0.590864 -71.017853 10.531666 -22.505804 -26.331802 -5.000000 26.226429 -18.218784 9.736252 19.982307 1.512254 13.606827 -0.724605 67.184273 -2.177629 -7.136085 17.672632 5.000000 25.544666 16.397884 -17.571470 0.554417 14.768570 11.724144 3.921982 0.155136 -3.612037 -0.101734 -5.445864 7.268763 -9.224499 16.789137 -10.358200 -10.593139 0.077971 2.333337 0.020953 -5.244389 -11.646085 8.967633 
1.082414 53.836784 -2.639423 -7.335031 2.091491 5.042468 26.743391 -0.342206 -0.272906 -0.202516 1.552504 -1.484542 -4.638587 0.830964 -0.056447 13.645975 -5.640938 2.050326 -15.263828 -11.451899 -0.597324 -71.072075 10.602339 -22.691179 -26.190895 -5.000000 26.738266 -18.361984 9.649774 21.225403 1.550175 13.519055 -0.720067 66.973366 -2.156476 -6.967878 17.844284 5.000000 26.252619 16.828609 -17.508198 1.173929 14.821579 11.707593 4.029287 0.155115 -3.621651 -0.091810 -5.453403 7.288325 -9.194157 16.769581 -10.367996 -10.485116 0.058170 2.304452 0.010549 -5.226213 -11.650049 8.978226 
1.092933 53.835922 -2.624759 -7.330163 2.072313 4.954635 26.714304 -0.320329 -0.273780 -0.220764 1.523225 -1.474790 -4.628870 0.742601 -0.052969 13.702192 -5.679941 2.060039 -15.284196 -11.529917 -0.601354 -71.116013 10.664158 -22.870695 -26.035940 -5.000000 27.258850 -18.540510 9.570992 22.406279 1.597745 13.421528 -0.715023 66.786980 -2.173939 -6.898971 18.046095 5.000000 26.817562 17.236055 -17.437508 1.622873 14.877858 11.686474 4.117101 0.155108 -3.641199 -0.091483 -5.462479 7.328640 -9.176254 16.794052 -10.418993 -10.426500 0.019349 2.314875 0.008095 -5.196674 -11.560551 8.997809 
1.102340 53.834488 -2.609464 -7.333469 2.062796 4.886320 26.685217 -0.285282 -0.280052 -0.229021 1.493949 -1.445510 -4.619041 0.665355 -0.041295 13.759023 -5.728737 2.061006 -15.304676 -11.617684 -0.605887 -71.141808 10.733437 -23.044846 -25.869534 -5.000000 27.785337 -18.740438 9.479231 23.541048 1.645324 13.324001 -0.709977 66.632454 -2.210618 -6.885653 18.274754 5.000000 27.263342 17.632153 -17.353746 1.951779 14.913221 11.675171 4.186502 0.164206 -3.679889 -0.091515 -5.499541 7.337855 -9.149344 16.801102 -10.408250 -10.404777 -0.009802 2.295409 0.006745 -5.170840 -11.618086 8.954111 
1.110915 53.833344 -2.593551 -7.335579 2.062975 4.827412 26.665997 -0.257912 -0.267838 -0.237818 1.464664 -1.425987 -4.609326 0.586648 -0.039276 13.819162 -5.767880 2.030874 -15.325056 -11.695702 -0.609915 -71.167801 10.802637 -23.220844 -25.717731 -5.000000 28.284750 -18.942631 9.392183 24.616621 1.673382 13.226478 -0.704928 66.479210 -2.263942 -6.885822 18.502605 5.000000 27.653954 17.995584 -17.274569 2.234357 14.963893 11.676150 4.247854 0.173917 -3.698984 -0.091883 -5.531525 7.344186 -9.156582 16.834509 -10.429129 -10.399688 -0.048658 2.295287 0.024407 -5.147167 -11.559154 8.959227 
1.116179 53.833344 -2.575170 -7.367449 2.053391 4.778616 26.675928 -0.232062 -0.225621 -0.247143 1.406070 -1.396687 -4.589856 0.536909 -0.041727 13.895413 -5.768153 1.953146 -15.364654 -11.744462 -0.612432 -71.193886 10.881000 -23.393723 -25.596167 -5.000000 28.672297 -19.115355 9.302228 25.464006 1.682163 13.148460 -0.700888 66.387947 -2.341395 -6.960066 18.750849 5.000000 27.809338 18.211708 -17.206509 2.277475 15.026068 11.678295 4.299537 0.184249 -3.698476 -0.092581 -5.547071 7.312063 -9.137397 16.882153 -10.428536 -10.371081 -0.058374 2.275532 0.024205 -5.125281 -11.493629 8.990658 
1.121439 53.833344 -2.556790 -7.408262 2.053536 4.729819 26.666380 -0.215290 -0.186741 -0.265965 1.347480 -1.367390 -4.580052 0.478975 -0.032880 13.972651 -5.768448 1.864719 -15.404252 -11.793221 -0.614948 -71.227959 10.942999 -23.560669 -25.473288 -5.000000 29.063087 -19.301212 9.204464 26.295738 1.681185 13.070445 -0.696847 66.287392 -2.429232 -7.029335 19.009022 5.000000 27.954561 18.430405 -17.145134 2.306121 15.093137 11.657992 4.337811 0.193929 -3.707280 -0.063836 -5.580790 7.326223 -9.109386 16.924906 -10.435330 -10.344718 -0.087097 2.264853 0.022719 -5.101485 -11.449323 9.000023 
1.123145 53.832188 -2.540522 -7.408262 2.053536 4.729819 26.646959 -0.184734 -0.184352 -0.274582 1.318197 -1.338102 -4.580089 0.409924 -0.032391 14.065475 -5.768606 1.815157 -15.406873 -11.849140 -0.627181 -71.227844 11.000941 -23.676355 -25.399340 -5.000000 29.313673 -19.388826 9.133085 26.824873 1.699745 12.992428 -0.692804 66.226654 -2.520339 -7.118298 19.194546 5.000000 27.920544 18.535482 -17.058706 2.197091 15.123437 11.668043 4.370581 0.193962 -3.727307 -0.092793 -5.618933 7.296806 -9.099349 16.966116 -10.426662 -10.333588 -0.117004 2.273490 0.030618 -5.101699 -11.527249 8.998400 
